<svg width="5000px" height="5000px" viewBox="0 0 5000 5000" xmlns="http://www.w3.org/2000/svg" xmlns:xlink="http://www.w3.org/1999/xlink"><g transform="matrix(1, 0, 0, 1, 0, 0)" clip-path="url(#mainClip7995)"><g transform="matrix(1, 0, 0, 1, 41, 41)"><g transform="matrix(1, 0, 0, 1, 0, 108.5)"><g transform="matrix(1, 0, 0, 1, 0, 0)"><rect x="0" y="0" width="207" height="192" fill="green" stroke="none" transform="matrix(1, 0, 0, 1, 0, 0)"></rect><text x="0" y="19.4923828125" style="font: Normal small-caps Normal 24px Open Sans, sans-serif" text-anchor="start" fill="white" stroke="none" transform="matrix(1, 0, 0, 1, 12, 12)">start</text><g transform="matrix(1, 0, 0, 1, 2, 52)"><rect x="0" y="0" width="203" height="138" fill="white" stroke="none" transform="matrix(1, 0, 0, 1, 0, 0)"></rect><rect x="0" y="0" width="170" height="65" fill="white" stroke="none" transform="matrix(1, 0, 0, 1, 12, 12)"></rect><g transform="matrix(1, 0, 0, 1, 12, 97)"><text x="0" y="14.619287109375001" style="font: 18px sans-serif" text-anchor="start" fill="red" stroke="none" transform="matrix(1, 0, 0, 1, 0, 4.5)">b</text><g transform="matrix(1, 0, 0, 1, 150, 0)"><path d="M 11,0 C 17.07513224813873,0 22,4.924867751861271 22,11 C 22,17.07513224813873 17.07513224813873,22 11,22 C 4.924867751861271,22 0,17.07513224813873 0,11 C 0,4.924867751861271 4.924867751861271,0 11,0 z" fill="white" stroke="none" transform="matrix(1, 0, 0, 1, 3.5, 3.5)"></path><path d="M 11,0 C 17.07513224813873,0 22,4.924867751861271 22,11 C 22,17.07513224813873 17.07513224813873,22 11,22 C 4.924867751861271,22 0,17.07513224813873 0,11 C 0,4.924867751861271 4.924867751861271,0 11,0 z" fill="none" stroke="dodgerblue" stroke-width="3" stroke-linecap="butt" stroke-linejoin="miter" stroke-miterlimit="10" transform="matrix(1, 0, 0, 1, 3.5, 3.5)"></path><path d="M 0,5.5 L 11,5.5 M 5.5,0 L 5.5,11" fill="none" stroke="dodgerblue" stroke-width="3" stroke-linecap="butt" stroke-linejoin="miter" stroke-miterlimit="10" transform="matrix(1, 0, 0, 1, 9, 9)"></path></g></g></g></g></g><g transform="matrix(1, 0, 0, 1, 0, 527.5)"><g transform="matrix(1, 0, 0, 1, 0, 0)"><rect x="0" y="0" width="207" height="192" fill="blue" stroke="none" transform="matrix(1, 0, 0, 1, 0, 0)"></rect><text x="0" y="19.4923828125" style="font: Normal small-caps Normal 24px Open Sans, sans-serif" text-anchor="start" fill="white" stroke="none" transform="matrix(1, 0, 0, 1, 12, 12)">service</text><g transform="matrix(1, 0, 0, 1, 2, 52)"><rect x="0" y="0" width="203" height="138" fill="white" stroke="none" transform="matrix(1, 0, 0, 1, 0, 0)"></rect><g transform="matrix(1, 0, 0, 1, 0, 0)"><rect x="0" y="0" width="170" height="65" fill="white" stroke="none" transform="matrix(1, 0, 0, 1, 12, 12)"></rect><text x="0" y="14.619287109375001" style="font: 18px sans-serif" text-anchor="start" fill="black" stroke="none" transform="matrix(1, 0, 0, 1, 12, 12)">Get Security</text><text x="0" y="34.111669921875" style="font: 18px sans-serif" text-anchor="start" fill="black" stroke="none" transform="matrix(1, 0, 0, 1, 12, 12)">Question to Setup</text></g><g transform="matrix(1, 0, 0, 1, 12, 97)"><text x="0" y="14.619287109375001" style="font: 18px sans-serif" text-anchor="start" fill="red" stroke="none" transform="matrix(1, 0, 0, 1, 0, 4.5)">j150qe7v</text><g transform="matrix(1, 0, 0, 1, 150, 0)"><path d="M 11,0 C 17.07513224813873,0 22,4.924867751861271 22,11 C 22,17.07513224813873 17.07513224813873,22 11,22 C 4.924867751861271,22 0,17.07513224813873 0,11 C 0,4.924867751861271 4.924867751861271,0 11,0 z" fill="white" stroke="none" transform="matrix(1, 0, 0, 1, 3.5, 3.5)"></path><path d="M 11,0 C 17.07513224813873,0 22,4.924867751861271 22,11 C 22,17.07513224813873 17.07513224813873,22 11,22 C 4.924867751861271,22 0,17.07513224813873 0,11 C 0,4.924867751861271 4.924867751861271,0 11,0 z" fill="none" stroke="dodgerblue" stroke-width="3" stroke-linecap="butt" stroke-linejoin="miter" stroke-miterlimit="10" transform="matrix(1, 0, 0, 1, 3.5, 3.5)"></path><path d="M 0,5.5 L 11,5.5 M 5.5,0 L 5.5,11" fill="none" stroke="dodgerblue" stroke-width="3" stroke-linecap="butt" stroke-linejoin="miter" stroke-miterlimit="10" transform="matrix(1, 0, 0, 1, 9, 9)"></path></g></g></g></g></g><g transform="matrix(1, 0, 0, 1, 504, 108.5)"><g transform="matrix(1, 0, 0, 1, 0, 0)"><rect x="0" y="0" width="207" height="192" fill="orange" stroke="none" transform="matrix(1, 0, 0, 1, 0, 0)"></rect><text x="0" y="19.4923828125" style="font: Normal small-caps Normal 24px Open Sans, sans-serif" text-anchor="start" fill="white" stroke="none" transform="matrix(1, 0, 0, 1, 12, 12)">subflow</text><g transform="matrix(1, 0, 0, 1, 2, 52)"><rect x="0" y="0" width="203" height="138" fill="white" stroke="none" transform="matrix(1, 0, 0, 1, 0, 0)"></rect><g transform="matrix(1, 0, 0, 1, 0, 0)"><rect x="0" y="0" width="170" height="65" fill="white" stroke="none" transform="matrix(1, 0, 0, 1, 12, 12)"></rect><text x="0" y="14.619287109375001" style="font: 18px sans-serif" text-anchor="start" fill="black" stroke="none" transform="matrix(1, 0, 0, 1, 12, 12)">genericLogProcess</text><text x="0" y="34.111669921875" style="font: 18px sans-serif" text-anchor="start" fill="black" stroke="none" transform="matrix(1, 0, 0, 1, 12, 12)">- Start</text></g><g transform="matrix(1, 0, 0, 1, 12, 97)"><text x="0" y="14.619287109375001" style="font: 18px sans-serif" text-anchor="start" fill="red" stroke="none" transform="matrix(1, 0, 0, 1, 0, 4.5)">j65xa07g</text><g transform="matrix(1, 0, 0, 1, 150, 0)"><path d="M 11,0 C 17.07513224813873,0 22,4.924867751861271 22,11 C 22,17.07513224813873 17.07513224813873,22 11,22 C 4.924867751861271,22 0,17.07513224813873 0,11 C 0,4.924867751861271 4.924867751861271,0 11,0 z" fill="white" stroke="none" transform="matrix(1, 0, 0, 1, 3.5, 3.5)"></path><path d="M 11,0 C 17.07513224813873,0 22,4.924867751861271 22,11 C 22,17.07513224813873 17.07513224813873,22 11,22 C 4.924867751861271,22 0,17.07513224813873 0,11 C 0,4.924867751861271 4.924867751861271,0 11,0 z" fill="none" stroke="dodgerblue" stroke-width="3" stroke-linecap="butt" stroke-linejoin="miter" stroke-miterlimit="10" transform="matrix(1, 0, 0, 1, 3.5, 3.5)"></path><path d="M 0,5.5 L 11,5.5 M 5.5,0 L 5.5,11" fill="none" stroke="dodgerblue" stroke-width="3" stroke-linecap="butt" stroke-linejoin="miter" stroke-miterlimit="10" transform="matrix(1, 0, 0, 1, 9, 9)"></path></g></g></g></g></g><g transform="matrix(1, 0, 0, 1, 756, 108.5)"><g transform="matrix(1, 0, 0, 1, 0, 0)"><rect x="0" y="0" width="207" height="192" fill="orange" stroke="none" transform="matrix(1, 0, 0, 1, 0, 0)"></rect><text x="0" y="19.4923828125" style="font: Normal small-caps Normal 24px Open Sans, sans-serif" text-anchor="start" fill="white" stroke="none" transform="matrix(1, 0, 0, 1, 12, 12)">subflow</text><g transform="matrix(1, 0, 0, 1, 2, 52)"><rect x="0" y="0" width="203" height="138" fill="white" stroke="none" transform="matrix(1, 0, 0, 1, 0, 0)"></rect><g transform="matrix(1, 0, 0, 1, 0, 0)"><rect x="0" y="0" width="170" height="65" fill="white" stroke="none" transform="matrix(1, 0, 0, 1, 12, 12)"></rect><text x="0" y="14.619287109375001" style="font: 18px sans-serif" text-anchor="start" fill="black" stroke="none" transform="matrix(1, 0, 0, 1, 12, 12)">genericLangTranslati</text><text x="0" y="34.111669921875" style="font: 18px sans-serif" text-anchor="start" fill="black" stroke="none" transform="matrix(1, 0, 0, 1, 12, 12)">onProcess</text></g><g transform="matrix(1, 0, 0, 1, 12, 97)"><text x="0" y="14.619287109375001" style="font: 18px sans-serif" text-anchor="start" fill="red" stroke="none" transform="matrix(1, 0, 0, 1, 0, 4.5)">j9o1tv99</text><g transform="matrix(1, 0, 0, 1, 150, 0)"><path d="M 11,0 C 17.07513224813873,0 22,4.924867751861271 22,11 C 22,17.07513224813873 17.07513224813873,22 11,22 C 4.924867751861271,22 0,17.07513224813873 0,11 C 0,4.924867751861271 4.924867751861271,0 11,0 z" fill="white" stroke="none" transform="matrix(1, 0, 0, 1, 3.5, 3.5)"></path><path d="M 11,0 C 17.07513224813873,0 22,4.924867751861271 22,11 C 22,17.07513224813873 17.07513224813873,22 11,22 C 4.924867751861271,22 0,17.07513224813873 0,11 C 0,4.924867751861271 4.924867751861271,0 11,0 z" fill="none" stroke="dodgerblue" stroke-width="3" stroke-linecap="butt" stroke-linejoin="miter" stroke-miterlimit="10" transform="matrix(1, 0, 0, 1, 3.5, 3.5)"></path><path d="M 0,5.5 L 11,5.5 M 5.5,0 L 5.5,11" fill="none" stroke="dodgerblue" stroke-width="3" stroke-linecap="butt" stroke-linejoin="miter" stroke-miterlimit="10" transform="matrix(1, 0, 0, 1, 9, 9)"></path></g></g></g></g></g><g transform="matrix(1, 0, 0, 1, 1260, 108.5)"><g transform="matrix(1, 0, 0, 1, 0, 0)"><rect x="0" y="0" width="207" height="192" fill="orange" stroke="none" transform="matrix(1, 0, 0, 1, 0, 0)"></rect><text x="0" y="19.4923828125" style="font: Normal small-caps Normal 24px Open Sans, sans-serif" text-anchor="start" fill="white" stroke="none" transform="matrix(1, 0, 0, 1, 12, 12)">subflow</text><g transform="matrix(1, 0, 0, 1, 2, 52)"><rect x="0" y="0" width="203" height="138" fill="white" stroke="none" transform="matrix(1, 0, 0, 1, 0, 0)"></rect><g transform="matrix(1, 0, 0, 1, 0, 0)"><rect x="0" y="0" width="170" height="65" fill="white" stroke="none" transform="matrix(1, 0, 0, 1, 12, 12)"></rect><text x="0" y="14.619287109375001" style="font: 18px sans-serif" text-anchor="start" fill="black" stroke="none" transform="matrix(1, 0, 0, 1, 12, 12)">Call Generic LRP</text><text x="0" y="34.111669921875" style="font: 18px sans-serif" text-anchor="start" fill="black" stroke="none" transform="matrix(1, 0, 0, 1, 12, 12)">Process</text></g><g transform="matrix(1, 0, 0, 1, 12, 97)"><text x="0" y="14.619287109375001" style="font: 18px sans-serif" text-anchor="start" fill="red" stroke="none" transform="matrix(1, 0, 0, 1, 0, 4.5)">j50ysnud</text><g transform="matrix(1, 0, 0, 1, 150, 0)"><path d="M 11,0 C 17.07513224813873,0 22,4.924867751861271 22,11 C 22,17.07513224813873 17.07513224813873,22 11,22 C 4.924867751861271,22 0,17.07513224813873 0,11 C 0,4.924867751861271 4.924867751861271,0 11,0 z" fill="white" stroke="none" transform="matrix(1, 0, 0, 1, 3.5, 3.5)"></path><path d="M 11,0 C 17.07513224813873,0 22,4.924867751861271 22,11 C 22,17.07513224813873 17.07513224813873,22 11,22 C 4.924867751861271,22 0,17.07513224813873 0,11 C 0,4.924867751861271 4.924867751861271,0 11,0 z" fill="none" stroke="dodgerblue" stroke-width="3" stroke-linecap="butt" stroke-linejoin="miter" stroke-miterlimit="10" transform="matrix(1, 0, 0, 1, 3.5, 3.5)"></path><path d="M 0,5.5 L 11,5.5 M 5.5,0 L 5.5,11" fill="none" stroke="dodgerblue" stroke-width="3" stroke-linecap="butt" stroke-linejoin="miter" stroke-miterlimit="10" transform="matrix(1, 0, 0, 1, 9, 9)"></path></g></g></g></g></g><g transform="matrix(1, 0, 0, 1, 2016, 0)"><g transform="matrix(1, 0, 0, 1, 0, 0)"><rect x="0" y="0" width="207" height="192" fill="orange" stroke="none" transform="matrix(1, 0, 0, 1, 0, 0)"></rect><text x="0" y="19.4923828125" style="font: Normal small-caps Normal 24px Open Sans, sans-serif" text-anchor="start" fill="white" stroke="none" transform="matrix(1, 0, 0, 1, 12, 12)">subflow</text><g transform="matrix(1, 0, 0, 1, 2, 52)"><rect x="0" y="0" width="203" height="138" fill="white" stroke="none" transform="matrix(1, 0, 0, 1, 0, 0)"></rect><g transform="matrix(1, 0, 0, 1, 0, 0)"><rect x="0" y="0" width="170" height="65" fill="white" stroke="none" transform="matrix(1, 0, 0, 1, 12, 12)"></rect><text x="0" y="14.619287109375001" style="font: 18px sans-serif" text-anchor="start" fill="black" stroke="none" transform="matrix(1, 0, 0, 1, 12, 12)">genericLangTranslati</text><text x="0" y="34.111669921875" style="font: 18px sans-serif" text-anchor="start" fill="black" stroke="none" transform="matrix(1, 0, 0, 1, 12, 12)">onProcess</text></g><g transform="matrix(1, 0, 0, 1, 12, 97)"><text x="0" y="14.619287109375001" style="font: 18px sans-serif" text-anchor="start" fill="red" stroke="none" transform="matrix(1, 0, 0, 1, 0, 4.5)">j9e0len4</text><g transform="matrix(1, 0, 0, 1, 150, 0)"><path d="M 11,0 C 17.07513224813873,0 22,4.924867751861271 22,11 C 22,17.07513224813873 17.07513224813873,22 11,22 C 4.924867751861271,22 0,17.07513224813873 0,11 C 0,4.924867751861271 4.924867751861271,0 11,0 z" fill="white" stroke="none" transform="matrix(1, 0, 0, 1, 3.5, 3.5)"></path><path d="M 11,0 C 17.07513224813873,0 22,4.924867751861271 22,11 C 22,17.07513224813873 17.07513224813873,22 11,22 C 4.924867751861271,22 0,17.07513224813873 0,11 C 0,4.924867751861271 4.924867751861271,0 11,0 z" fill="none" stroke="dodgerblue" stroke-width="3" stroke-linecap="butt" stroke-linejoin="miter" stroke-miterlimit="10" transform="matrix(1, 0, 0, 1, 3.5, 3.5)"></path><path d="M 0,5.5 L 11,5.5 M 5.5,0 L 5.5,11" fill="none" stroke="dodgerblue" stroke-width="3" stroke-linecap="butt" stroke-linejoin="miter" stroke-miterlimit="10" transform="matrix(1, 0, 0, 1, 9, 9)"></path></g></g></g></g></g><g transform="matrix(1, 0, 0, 1, 2016, 217)"><g transform="matrix(1, 0, 0, 1, 0, 0)"><rect x="0" y="0" width="207" height="192" fill="orange" stroke="none" transform="matrix(1, 0, 0, 1, 0, 0)"></rect><text x="0" y="19.4923828125" style="font: Normal small-caps Normal 24px Open Sans, sans-serif" text-anchor="start" fill="white" stroke="none" transform="matrix(1, 0, 0, 1, 12, 12)">subflow</text><g transform="matrix(1, 0, 0, 1, 2, 52)"><rect x="0" y="0" width="203" height="138" fill="white" stroke="none" transform="matrix(1, 0, 0, 1, 0, 0)"></rect><g transform="matrix(1, 0, 0, 1, 0, 0)"><rect x="0" y="0" width="170" height="65" fill="white" stroke="none" transform="matrix(1, 0, 0, 1, 12, 12)"></rect><text x="0" y="14.619287109375001" style="font: 18px sans-serif" text-anchor="start" fill="black" stroke="none" transform="matrix(1, 0, 0, 1, 12, 12)">genericLogProcess</text><text x="0" y="34.111669921875" style="font: 18px sans-serif" text-anchor="start" fill="black" stroke="none" transform="matrix(1, 0, 0, 1, 12, 12)">- Error[LRP]</text></g><g transform="matrix(1, 0, 0, 1, 12, 97)"><text x="0" y="14.619287109375001" style="font: 18px sans-serif" text-anchor="start" fill="red" stroke="none" transform="matrix(1, 0, 0, 1, 0, 4.5)">j75mk5xh</text><g transform="matrix(1, 0, 0, 1, 150, 0)"><path d="M 11,0 C 17.07513224813873,0 22,4.924867751861271 22,11 C 22,17.07513224813873 17.07513224813873,22 11,22 C 4.924867751861271,22 0,17.07513224813873 0,11 C 0,4.924867751861271 4.924867751861271,0 11,0 z" fill="white" stroke="none" transform="matrix(1, 0, 0, 1, 3.5, 3.5)"></path><path d="M 11,0 C 17.07513224813873,0 22,4.924867751861271 22,11 C 22,17.07513224813873 17.07513224813873,22 11,22 C 4.924867751861271,22 0,17.07513224813873 0,11 C 0,4.924867751861271 4.924867751861271,0 11,0 z" fill="none" stroke="dodgerblue" stroke-width="3" stroke-linecap="butt" stroke-linejoin="miter" stroke-miterlimit="10" transform="matrix(1, 0, 0, 1, 3.5, 3.5)"></path><path d="M 0,5.5 L 11,5.5 M 5.5,0 L 5.5,11" fill="none" stroke="dodgerblue" stroke-width="3" stroke-linecap="butt" stroke-linejoin="miter" stroke-miterlimit="10" transform="matrix(1, 0, 0, 1, 9, 9)"></path></g></g></g></g></g><g transform="matrix(1, 0, 0, 1, 504, 838)"><g transform="matrix(1, 0, 0, 1, 0, 0)"><rect x="0" y="0" width="207" height="192" fill="orange" stroke="none" transform="matrix(1, 0, 0, 1, 0, 0)"></rect><text x="0" y="19.4923828125" style="font: Normal small-caps Normal 24px Open Sans, sans-serif" text-anchor="start" fill="white" stroke="none" transform="matrix(1, 0, 0, 1, 12, 12)">subflow</text><g transform="matrix(1, 0, 0, 1, 2, 52)"><rect x="0" y="0" width="203" height="138" fill="white" stroke="none" transform="matrix(1, 0, 0, 1, 0, 0)"></rect><g transform="matrix(1, 0, 0, 1, 0, 0)"><rect x="0" y="0" width="170" height="65" fill="white" stroke="none" transform="matrix(1, 0, 0, 1, 12, 12)"></rect><text x="0" y="14.619287109375001" style="font: 18px sans-serif" text-anchor="start" fill="black" stroke="none" transform="matrix(1, 0, 0, 1, 12, 12)">translationLookupPr</text><text x="0" y="34.111669921875" style="font: 18px sans-serif" text-anchor="start" fill="black" stroke="none" transform="matrix(1, 0, 0, 1, 12, 12)">ocess</text></g><g transform="matrix(1, 0, 0, 1, 12, 97)"><text x="0" y="14.619287109375001" style="font: 18px sans-serif" text-anchor="start" fill="red" stroke="none" transform="matrix(1, 0, 0, 1, 0, 4.5)">j7q2l240</text><g transform="matrix(1, 0, 0, 1, 150, 0)"><path d="M 11,0 C 17.07513224813873,0 22,4.924867751861271 22,11 C 22,17.07513224813873 17.07513224813873,22 11,22 C 4.924867751861271,22 0,17.07513224813873 0,11 C 0,4.924867751861271 4.924867751861271,0 11,0 z" fill="white" stroke="none" transform="matrix(1, 0, 0, 1, 3.5, 3.5)"></path><path d="M 11,0 C 17.07513224813873,0 22,4.924867751861271 22,11 C 22,17.07513224813873 17.07513224813873,22 11,22 C 4.924867751861271,22 0,17.07513224813873 0,11 C 0,4.924867751861271 4.924867751861271,0 11,0 z" fill="none" stroke="dodgerblue" stroke-width="3" stroke-linecap="butt" stroke-linejoin="miter" stroke-miterlimit="10" transform="matrix(1, 0, 0, 1, 3.5, 3.5)"></path><path d="M 0,5.5 L 11,5.5 M 5.5,0 L 5.5,11" fill="none" stroke="dodgerblue" stroke-width="3" stroke-linecap="butt" stroke-linejoin="miter" stroke-miterlimit="10" transform="matrix(1, 0, 0, 1, 9, 9)"></path></g></g></g></g></g><g transform="matrix(1, 0, 0, 1, 1260, 838)"><g transform="matrix(1, 0, 0, 1, 0, 0)"><rect x="0" y="0" width="207" height="192" fill="orange" stroke="none" transform="matrix(1, 0, 0, 1, 0, 0)"></rect><text x="0" y="19.4923828125" style="font: Normal small-caps Normal 24px Open Sans, sans-serif" text-anchor="start" fill="white" stroke="none" transform="matrix(1, 0, 0, 1, 12, 12)">subflow</text><g transform="matrix(1, 0, 0, 1, 2, 52)"><rect x="0" y="0" width="203" height="138" fill="white" stroke="none" transform="matrix(1, 0, 0, 1, 0, 0)"></rect><g transform="matrix(1, 0, 0, 1, 0, 0)"><rect x="0" y="0" width="170" height="65" fill="white" stroke="none" transform="matrix(1, 0, 0, 1, 12, 12)"></rect><text x="0" y="14.619287109375001" style="font: 18px sans-serif" text-anchor="start" fill="black" stroke="none" transform="matrix(1, 0, 0, 1, 12, 12)">genericLogProcess</text><text x="0" y="34.111669921875" style="font: 18px sans-serif" text-anchor="start" fill="black" stroke="none" transform="matrix(1, 0, 0, 1, 12, 12)">- Success</text></g><g transform="matrix(1, 0, 0, 1, 12, 97)"><text x="0" y="14.619287109375001" style="font: 18px sans-serif" text-anchor="start" fill="red" stroke="none" transform="matrix(1, 0, 0, 1, 0, 4.5)">j65xa2jp</text><g transform="matrix(1, 0, 0, 1, 150, 0)"><path d="M 11,0 C 17.07513224813873,0 22,4.924867751861271 22,11 C 22,17.07513224813873 17.07513224813873,22 11,22 C 4.924867751861271,22 0,17.07513224813873 0,11 C 0,4.924867751861271 4.924867751861271,0 11,0 z" fill="white" stroke="none" transform="matrix(1, 0, 0, 1, 3.5, 3.5)"></path><path d="M 11,0 C 17.07513224813873,0 22,4.924867751861271 22,11 C 22,17.07513224813873 17.07513224813873,22 11,22 C 4.924867751861271,22 0,17.07513224813873 0,11 C 0,4.924867751861271 4.924867751861271,0 11,0 z" fill="none" stroke="dodgerblue" stroke-width="3" stroke-linecap="butt" stroke-linejoin="miter" stroke-miterlimit="10" transform="matrix(1, 0, 0, 1, 3.5, 3.5)"></path><path d="M 0,5.5 L 11,5.5 M 5.5,0 L 5.5,11" fill="none" stroke="dodgerblue" stroke-width="3" stroke-linecap="butt" stroke-linejoin="miter" stroke-miterlimit="10" transform="matrix(1, 0, 0, 1, 9, 9)"></path></g></g></g></g></g><g transform="matrix(1, 0, 0, 1, 1008, 1055)"><g transform="matrix(1, 0, 0, 1, 0, 0)"><rect x="0" y="0" width="207" height="192" fill="orange" stroke="none" transform="matrix(1, 0, 0, 1, 0, 0)"></rect><text x="0" y="19.4923828125" style="font: Normal small-caps Normal 24px Open Sans, sans-serif" text-anchor="start" fill="white" stroke="none" transform="matrix(1, 0, 0, 1, 12, 12)">subflow</text><g transform="matrix(1, 0, 0, 1, 2, 52)"><rect x="0" y="0" width="203" height="138" fill="white" stroke="none" transform="matrix(1, 0, 0, 1, 0, 0)"></rect><g transform="matrix(1, 0, 0, 1, 0, 0)"><rect x="0" y="0" width="170" height="65" fill="white" stroke="none" transform="matrix(1, 0, 0, 1, 12, 12)"></rect><text x="0" y="14.619287109375001" style="font: 18px sans-serif" text-anchor="start" fill="black" stroke="none" transform="matrix(1, 0, 0, 1, 12, 12)">genericLogProcess</text><text x="0" y="34.111669921875" style="font: 18px sans-serif" text-anchor="start" fill="black" stroke="none" transform="matrix(1, 0, 0, 1, 12, 12)">- Error</text></g><g transform="matrix(1, 0, 0, 1, 12, 97)"><text x="0" y="14.619287109375001" style="font: 18px sans-serif" text-anchor="start" fill="red" stroke="none" transform="matrix(1, 0, 0, 1, 0, 4.5)">j75mk65w</text><g transform="matrix(1, 0, 0, 1, 150, 0)"><path d="M 11,0 C 17.07513224813873,0 22,4.924867751861271 22,11 C 22,17.07513224813873 17.07513224813873,22 11,22 C 4.924867751861271,22 0,17.07513224813873 0,11 C 0,4.924867751861271 4.924867751861271,0 11,0 z" fill="white" stroke="none" transform="matrix(1, 0, 0, 1, 3.5, 3.5)"></path><path d="M 11,0 C 17.07513224813873,0 22,4.924867751861271 22,11 C 22,17.07513224813873 17.07513224813873,22 11,22 C 4.924867751861271,22 0,17.07513224813873 0,11 C 0,4.924867751861271 4.924867751861271,0 11,0 z" fill="none" stroke="dodgerblue" stroke-width="3" stroke-linecap="butt" stroke-linejoin="miter" stroke-miterlimit="10" transform="matrix(1, 0, 0, 1, 3.5, 3.5)"></path><path d="M 0,5.5 L 11,5.5 M 5.5,0 L 5.5,11" fill="none" stroke="dodgerblue" stroke-width="3" stroke-linecap="butt" stroke-linejoin="miter" stroke-miterlimit="10" transform="matrix(1, 0, 0, 1, 9, 9)"></path></g></g></g></g></g><g transform="matrix(1, 0, 0, 1, 1260, 1055)"><g transform="matrix(1, 0, 0, 1, 0, 0)"><rect x="0" y="0" width="207" height="192" fill="orange" stroke="none" transform="matrix(1, 0, 0, 1, 0, 0)"></rect><text x="0" y="19.4923828125" style="font: Normal small-caps Normal 24px Open Sans, sans-serif" text-anchor="start" fill="white" stroke="none" transform="matrix(1, 0, 0, 1, 12, 12)">subflow</text><g transform="matrix(1, 0, 0, 1, 2, 52)"><rect x="0" y="0" width="203" height="138" fill="white" stroke="none" transform="matrix(1, 0, 0, 1, 0, 0)"></rect><g transform="matrix(1, 0, 0, 1, 0, 0)"><rect x="0" y="0" width="170" height="65" fill="white" stroke="none" transform="matrix(1, 0, 0, 1, 12, 12)"></rect><text x="0" y="14.619287109375001" style="font: 18px sans-serif" text-anchor="start" fill="black" stroke="none" transform="matrix(1, 0, 0, 1, 12, 12)">translationLookupPr</text><text x="0" y="34.111669921875" style="font: 18px sans-serif" text-anchor="start" fill="black" stroke="none" transform="matrix(1, 0, 0, 1, 12, 12)">ocess - error</text></g><g transform="matrix(1, 0, 0, 1, 12, 97)"><text x="0" y="14.619287109375001" style="font: 18px sans-serif" text-anchor="start" fill="red" stroke="none" transform="matrix(1, 0, 0, 1, 0, 4.5)">j7zpetpp</text><g transform="matrix(1, 0, 0, 1, 150, 0)"><path d="M 11,0 C 17.07513224813873,0 22,4.924867751861271 22,11 C 22,17.07513224813873 17.07513224813873,22 11,22 C 4.924867751861271,22 0,17.07513224813873 0,11 C 0,4.924867751861271 4.924867751861271,0 11,0 z" fill="white" stroke="none" transform="matrix(1, 0, 0, 1, 3.5, 3.5)"></path><path d="M 11,0 C 17.07513224813873,0 22,4.924867751861271 22,11 C 22,17.07513224813873 17.07513224813873,22 11,22 C 4.924867751861271,22 0,17.07513224813873 0,11 C 0,4.924867751861271 4.924867751861271,0 11,0 z" fill="none" stroke="dodgerblue" stroke-width="3" stroke-linecap="butt" stroke-linejoin="miter" stroke-miterlimit="10" transform="matrix(1, 0, 0, 1, 3.5, 3.5)"></path><path d="M 0,5.5 L 11,5.5 M 5.5,0 L 5.5,11" fill="none" stroke="dodgerblue" stroke-width="3" stroke-linecap="butt" stroke-linejoin="miter" stroke-miterlimit="10" transform="matrix(1, 0, 0, 1, 9, 9)"></path></g></g></g></g></g><g transform="matrix(1, 0, 0, 1, 252, 108.5)"><g transform="matrix(1, 0, 0, 1, 0, 0)"><rect x="0" y="0" width="207" height="192" fill="red" stroke="none" transform="matrix(1, 0, 0, 1, 0, 0)"></rect><text x="0" y="19.4923828125" style="font: Normal small-caps Normal 24px Open Sans, sans-serif" text-anchor="start" fill="white" stroke="none" transform="matrix(1, 0, 0, 1, 12, 12)">assignment</text><g transform="matrix(1, 0, 0, 1, 2, 52)"><rect x="0" y="0" width="203" height="138" fill="white" stroke="none" transform="matrix(1, 0, 0, 1, 0, 0)"></rect><g transform="matrix(1, 0, 0, 1, 0, 0)"><rect x="0" y="0" width="170" height="65" fill="white" stroke="none" transform="matrix(1, 0, 0, 1, 12, 12)"></rect><text x="0" y="14.619287109375001" style="font: 18px sans-serif" text-anchor="start" fill="black" stroke="none" transform="matrix(1, 0, 0, 1, 12, 12)">Initializing values for</text><text x="0" y="34.111669921875" style="font: 18px sans-serif" text-anchor="start" fill="black" stroke="none" transform="matrix(1, 0, 0, 1, 12, 12)">security Questions</text><text x="0" y="53.604052734375" style="font: 18px sans-serif" text-anchor="start" fill="black" stroke="none" transform="matrix(1, 0, 0, 1, 12, 12)">Retrieve ProcessOG</text></g><g transform="matrix(1, 0, 0, 1, 12, 97)"><text x="0" y="14.619287109375001" style="font: 18px sans-serif" text-anchor="start" fill="red" stroke="none" transform="matrix(1, 0, 0, 1, 0, 4.5)">j1hg5wbp</text><g transform="matrix(1, 0, 0, 1, 150, 0)"><path d="M 11,0 C 17.07513224813873,0 22,4.924867751861271 22,11 C 22,17.07513224813873 17.07513224813873,22 11,22 C 4.924867751861271,22 0,17.07513224813873 0,11 C 0,4.924867751861271 4.924867751861271,0 11,0 z" fill="white" stroke="none" transform="matrix(1, 0, 0, 1, 3.5, 3.5)"></path><path d="M 11,0 C 17.07513224813873,0 22,4.924867751861271 22,11 C 22,17.07513224813873 17.07513224813873,22 11,22 C 4.924867751861271,22 0,17.07513224813873 0,11 C 0,4.924867751861271 4.924867751861271,0 11,0 z" fill="none" stroke="dodgerblue" stroke-width="3" stroke-linecap="butt" stroke-linejoin="miter" stroke-miterlimit="10" transform="matrix(1, 0, 0, 1, 3.5, 3.5)"></path><path d="M 0,5.5 L 11,5.5 M 5.5,0 L 5.5,11" fill="none" stroke="dodgerblue" stroke-width="3" stroke-linecap="butt" stroke-linejoin="miter" stroke-miterlimit="10" transform="matrix(1, 0, 0, 1, 9, 9)"></path></g></g></g></g></g><g transform="matrix(1, 0, 0, 1, 1008, 108.5)"><g transform="matrix(1, 0, 0, 1, 0, 0)"><rect x="0" y="0" width="207" height="192" fill="red" stroke="none" transform="matrix(1, 0, 0, 1, 0, 0)"></rect><text x="0" y="19.4923828125" style="font: Normal small-caps Normal 24px Open Sans, sans-serif" text-anchor="start" fill="white" stroke="none" transform="matrix(1, 0, 0, 1, 12, 12)">assignment</text><g transform="matrix(1, 0, 0, 1, 2, 52)"><rect x="0" y="0" width="203" height="138" fill="white" stroke="none" transform="matrix(1, 0, 0, 1, 0, 0)"></rect><g transform="matrix(1, 0, 0, 1, 0, 0)"><rect x="0" y="0" width="170" height="65" fill="white" stroke="none" transform="matrix(1, 0, 0, 1, 12, 12)"></rect><text x="0" y="14.619287109375001" style="font: 18px sans-serif" text-anchor="start" fill="black" stroke="none" transform="matrix(1, 0, 0, 1, 12, 12)">Assignment to</text><text x="0" y="34.111669921875" style="font: 18px sans-serif" text-anchor="start" fill="black" stroke="none" transform="matrix(1, 0, 0, 1, 12, 12)">temp_translation_lan</text><text x="0" y="53.604052734375" style="font: 18px sans-serif" text-anchor="start" fill="black" stroke="none" transform="matrix(1, 0, 0, 1, 12, 12)">g</text></g><g transform="matrix(1, 0, 0, 1, 12, 97)"><text x="0" y="14.619287109375001" style="font: 18px sans-serif" text-anchor="start" fill="red" stroke="none" transform="matrix(1, 0, 0, 1, 0, 4.5)">j9o1twe1</text><g transform="matrix(1, 0, 0, 1, 150, 0)"><path d="M 11,0 C 17.07513224813873,0 22,4.924867751861271 22,11 C 22,17.07513224813873 17.07513224813873,22 11,22 C 4.924867751861271,22 0,17.07513224813873 0,11 C 0,4.924867751861271 4.924867751861271,0 11,0 z" fill="white" stroke="none" transform="matrix(1, 0, 0, 1, 3.5, 3.5)"></path><path d="M 11,0 C 17.07513224813873,0 22,4.924867751861271 22,11 C 22,17.07513224813873 17.07513224813873,22 11,22 C 4.924867751861271,22 0,17.07513224813873 0,11 C 0,4.924867751861271 4.924867751861271,0 11,0 z" fill="none" stroke="dodgerblue" stroke-width="3" stroke-linecap="butt" stroke-linejoin="miter" stroke-miterlimit="10" transform="matrix(1, 0, 0, 1, 3.5, 3.5)"></path><path d="M 0,5.5 L 11,5.5 M 5.5,0 L 5.5,11" fill="none" stroke="dodgerblue" stroke-width="3" stroke-linecap="butt" stroke-linejoin="miter" stroke-miterlimit="10" transform="matrix(1, 0, 0, 1, 9, 9)"></path></g></g></g></g></g><g transform="matrix(1, 0, 0, 1, 1764, 0)"><g transform="matrix(1, 0, 0, 1, 0, 0)"><rect x="0" y="0" width="207" height="192" fill="red" stroke="none" transform="matrix(1, 0, 0, 1, 0, 0)"></rect><text x="0" y="19.4923828125" style="font: Normal small-caps Normal 24px Open Sans, sans-serif" text-anchor="start" fill="white" stroke="none" transform="matrix(1, 0, 0, 1, 12, 12)">assignment</text><g transform="matrix(1, 0, 0, 1, 2, 52)"><rect x="0" y="0" width="203" height="138" fill="white" stroke="none" transform="matrix(1, 0, 0, 1, 0, 0)"></rect><g transform="matrix(1, 0, 0, 1, 0, 0)"><rect x="0" y="0" width="170" height="65" fill="white" stroke="none" transform="matrix(1, 0, 0, 1, 12, 12)"></rect><text x="0" y="14.619287109375001" style="font: 18px sans-serif" text-anchor="start" fill="black" stroke="none" transform="matrix(1, 0, 0, 1, 12, 12)">Assignment to</text><text x="0" y="34.111669921875" style="font: 18px sans-serif" text-anchor="start" fill="black" stroke="none" transform="matrix(1, 0, 0, 1, 12, 12)">temp_translationvoLi</text><text x="0" y="53.604052734375" style="font: 18px sans-serif" text-anchor="start" fill="black" stroke="none" transform="matrix(1, 0, 0, 1, 12, 12)">st</text></g><g transform="matrix(1, 0, 0, 1, 12, 97)"><text x="0" y="14.619287109375001" style="font: 18px sans-serif" text-anchor="start" fill="red" stroke="none" transform="matrix(1, 0, 0, 1, 0, 4.5)">j9e0lend</text><g transform="matrix(1, 0, 0, 1, 150, 0)"><path d="M 11,0 C 17.07513224813873,0 22,4.924867751861271 22,11 C 22,17.07513224813873 17.07513224813873,22 11,22 C 4.924867751861271,22 0,17.07513224813873 0,11 C 0,4.924867751861271 4.924867751861271,0 11,0 z" fill="white" stroke="none" transform="matrix(1, 0, 0, 1, 3.5, 3.5)"></path><path d="M 11,0 C 17.07513224813873,0 22,4.924867751861271 22,11 C 22,17.07513224813873 17.07513224813873,22 11,22 C 4.924867751861271,22 0,17.07513224813873 0,11 C 0,4.924867751861271 4.924867751861271,0 11,0 z" fill="none" stroke="dodgerblue" stroke-width="3" stroke-linecap="butt" stroke-linejoin="miter" stroke-miterlimit="10" transform="matrix(1, 0, 0, 1, 3.5, 3.5)"></path><path d="M 0,5.5 L 11,5.5 M 5.5,0 L 5.5,11" fill="none" stroke="dodgerblue" stroke-width="3" stroke-linecap="butt" stroke-linejoin="miter" stroke-miterlimit="10" transform="matrix(1, 0, 0, 1, 9, 9)"></path></g></g></g></g></g><g transform="matrix(1, 0, 0, 1, 1764, 217)"><g transform="matrix(1, 0, 0, 1, 0, 0)"><rect x="0" y="0" width="207" height="192" fill="red" stroke="none" transform="matrix(1, 0, 0, 1, 0, 0)"></rect><text x="0" y="19.4923828125" style="font: Normal small-caps Normal 24px Open Sans, sans-serif" text-anchor="start" fill="white" stroke="none" transform="matrix(1, 0, 0, 1, 12, 12)">assignment</text><g transform="matrix(1, 0, 0, 1, 2, 52)"><rect x="0" y="0" width="203" height="138" fill="white" stroke="none" transform="matrix(1, 0, 0, 1, 0, 0)"></rect><g transform="matrix(1, 0, 0, 1, 0, 0)"><rect x="0" y="0" width="170" height="65" fill="white" stroke="none" transform="matrix(1, 0, 0, 1, 12, 12)"></rect><text x="0" y="14.619287109375001" style="font: 18px sans-serif" text-anchor="start" fill="black" stroke="none" transform="matrix(1, 0, 0, 1, 12, 12)">Assignment of Errors</text><text x="0" y="34.111669921875" style="font: 18px sans-serif" text-anchor="start" fill="black" stroke="none" transform="matrix(1, 0, 0, 1, 12, 12)">from LRP</text></g><g transform="matrix(1, 0, 0, 1, 12, 97)"><text x="0" y="14.619287109375001" style="font: 18px sans-serif" text-anchor="start" fill="red" stroke="none" transform="matrix(1, 0, 0, 1, 0, 4.5)">j50yso8x</text><g transform="matrix(1, 0, 0, 1, 150, 0)"><path d="M 11,0 C 17.07513224813873,0 22,4.924867751861271 22,11 C 22,17.07513224813873 17.07513224813873,22 11,22 C 4.924867751861271,22 0,17.07513224813873 0,11 C 0,4.924867751861271 4.924867751861271,0 11,0 z" fill="white" stroke="none" transform="matrix(1, 0, 0, 1, 3.5, 3.5)"></path><path d="M 11,0 C 17.07513224813873,0 22,4.924867751861271 22,11 C 22,17.07513224813873 17.07513224813873,22 11,22 C 4.924867751861271,22 0,17.07513224813873 0,11 C 0,4.924867751861271 4.924867751861271,0 11,0 z" fill="none" stroke="dodgerblue" stroke-width="3" stroke-linecap="butt" stroke-linejoin="miter" stroke-miterlimit="10" transform="matrix(1, 0, 0, 1, 3.5, 3.5)"></path><path d="M 0,5.5 L 11,5.5 M 5.5,0 L 5.5,11" fill="none" stroke="dodgerblue" stroke-width="3" stroke-linecap="butt" stroke-linejoin="miter" stroke-miterlimit="10" transform="matrix(1, 0, 0, 1, 9, 9)"></path></g></g></g></g></g><g transform="matrix(1, 0, 0, 1, 252, 838)"><g transform="matrix(1, 0, 0, 1, 0, 0)"><rect x="0" y="0" width="207" height="192" fill="red" stroke="none" transform="matrix(1, 0, 0, 1, 0, 0)"></rect><text x="0" y="19.4923828125" style="font: Normal small-caps Normal 24px Open Sans, sans-serif" text-anchor="start" fill="white" stroke="none" transform="matrix(1, 0, 0, 1, 12, 12)">assignment</text><g transform="matrix(1, 0, 0, 1, 2, 52)"><rect x="0" y="0" width="203" height="138" fill="white" stroke="none" transform="matrix(1, 0, 0, 1, 0, 0)"></rect><g transform="matrix(1, 0, 0, 1, 0, 0)"><rect x="0" y="0" width="170" height="65" fill="white" stroke="none" transform="matrix(1, 0, 0, 1, 12, 12)"></rect><text x="0" y="14.619287109375001" style="font: 18px sans-serif" text-anchor="start" fill="black" stroke="none" transform="matrix(1, 0, 0, 1, 12, 12)">add values to</text><text x="0" y="34.111669921875" style="font: 18px sans-serif" text-anchor="start" fill="black" stroke="none" transform="matrix(1, 0, 0, 1, 12, 12)">translation list</text></g><g transform="matrix(1, 0, 0, 1, 12, 97)"><text x="0" y="14.619287109375001" style="font: 18px sans-serif" text-anchor="start" fill="red" stroke="none" transform="matrix(1, 0, 0, 1, 0, 4.5)">j7ucrtzj</text><g transform="matrix(1, 0, 0, 1, 150, 0)"><path d="M 11,0 C 17.07513224813873,0 22,4.924867751861271 22,11 C 22,17.07513224813873 17.07513224813873,22 11,22 C 4.924867751861271,22 0,17.07513224813873 0,11 C 0,4.924867751861271 4.924867751861271,0 11,0 z" fill="white" stroke="none" transform="matrix(1, 0, 0, 1, 3.5, 3.5)"></path><path d="M 11,0 C 17.07513224813873,0 22,4.924867751861271 22,11 C 22,17.07513224813873 17.07513224813873,22 11,22 C 4.924867751861271,22 0,17.07513224813873 0,11 C 0,4.924867751861271 4.924867751861271,0 11,0 z" fill="none" stroke="dodgerblue" stroke-width="3" stroke-linecap="butt" stroke-linejoin="miter" stroke-miterlimit="10" transform="matrix(1, 0, 0, 1, 3.5, 3.5)"></path><path d="M 0,5.5 L 11,5.5 M 5.5,0 L 5.5,11" fill="none" stroke="dodgerblue" stroke-width="3" stroke-linecap="butt" stroke-linejoin="miter" stroke-miterlimit="10" transform="matrix(1, 0, 0, 1, 9, 9)"></path></g></g></g></g></g><g transform="matrix(1, 0, 0, 1, 756, 838)"><g transform="matrix(1, 0, 0, 1, 0, 0)"><rect x="0" y="0" width="207" height="192" fill="red" stroke="none" transform="matrix(1, 0, 0, 1, 0, 0)"></rect><text x="0" y="19.4923828125" style="font: Normal small-caps Normal 24px Open Sans, sans-serif" text-anchor="start" fill="white" stroke="none" transform="matrix(1, 0, 0, 1, 12, 12)">assignment</text><g transform="matrix(1, 0, 0, 1, 2, 52)"><rect x="0" y="0" width="203" height="138" fill="white" stroke="none" transform="matrix(1, 0, 0, 1, 0, 0)"></rect><g transform="matrix(1, 0, 0, 1, 0, 0)"><rect x="0" y="0" width="170" height="65" fill="white" stroke="none" transform="matrix(1, 0, 0, 1, 12, 12)"></rect><text x="0" y="14.619287109375001" style="font: 18px sans-serif" text-anchor="start" fill="black" stroke="none" transform="matrix(1, 0, 0, 1, 12, 12)">Map translation to</text><text x="0" y="34.111669921875" style="font: 18px sans-serif" text-anchor="start" fill="black" stroke="none" transform="matrix(1, 0, 0, 1, 12, 12)">response</text></g><g transform="matrix(1, 0, 0, 1, 12, 97)"><text x="0" y="14.619287109375001" style="font: 18px sans-serif" text-anchor="start" fill="red" stroke="none" transform="matrix(1, 0, 0, 1, 0, 4.5)">j7vmolgf</text><g transform="matrix(1, 0, 0, 1, 150, 0)"><path d="M 11,0 C 17.07513224813873,0 22,4.924867751861271 22,11 C 22,17.07513224813873 17.07513224813873,22 11,22 C 4.924867751861271,22 0,17.07513224813873 0,11 C 0,4.924867751861271 4.924867751861271,0 11,0 z" fill="white" stroke="none" transform="matrix(1, 0, 0, 1, 3.5, 3.5)"></path><path d="M 11,0 C 17.07513224813873,0 22,4.924867751861271 22,11 C 22,17.07513224813873 17.07513224813873,22 11,22 C 4.924867751861271,22 0,17.07513224813873 0,11 C 0,4.924867751861271 4.924867751861271,0 11,0 z" fill="none" stroke="dodgerblue" stroke-width="3" stroke-linecap="butt" stroke-linejoin="miter" stroke-miterlimit="10" transform="matrix(1, 0, 0, 1, 3.5, 3.5)"></path><path d="M 0,5.5 L 11,5.5 M 5.5,0 L 5.5,11" fill="none" stroke="dodgerblue" stroke-width="3" stroke-linecap="butt" stroke-linejoin="miter" stroke-miterlimit="10" transform="matrix(1, 0, 0, 1, 9, 9)"></path></g></g></g></g></g><g transform="matrix(1, 0, 0, 1, 1008, 838)"><g transform="matrix(1, 0, 0, 1, 0, 0)"><rect x="0" y="0" width="207" height="192" fill="red" stroke="none" transform="matrix(1, 0, 0, 1, 0, 0)"></rect><text x="0" y="19.4923828125" style="font: Normal small-caps Normal 24px Open Sans, sans-serif" text-anchor="start" fill="white" stroke="none" transform="matrix(1, 0, 0, 1, 12, 12)">assignment</text><g transform="matrix(1, 0, 0, 1, 2, 52)"><rect x="0" y="0" width="203" height="138" fill="white" stroke="none" transform="matrix(1, 0, 0, 1, 0, 0)"></rect><g transform="matrix(1, 0, 0, 1, 0, 0)"><rect x="0" y="0" width="170" height="65" fill="white" stroke="none" transform="matrix(1, 0, 0, 1, 12, 12)"></rect><text x="0" y="14.619287109375001" style="font: 18px sans-serif" text-anchor="start" fill="black" stroke="none" transform="matrix(1, 0, 0, 1, 12, 12)">Assign Success</text><text x="0" y="34.111669921875" style="font: 18px sans-serif" text-anchor="start" fill="black" stroke="none" transform="matrix(1, 0, 0, 1, 12, 12)">Response</text></g><g transform="matrix(1, 0, 0, 1, 12, 97)"><text x="0" y="14.619287109375001" style="font: 18px sans-serif" text-anchor="start" fill="red" stroke="none" transform="matrix(1, 0, 0, 1, 0, 4.5)">j2vlnclu</text><g transform="matrix(1, 0, 0, 1, 150, 0)"><path d="M 11,0 C 17.07513224813873,0 22,4.924867751861271 22,11 C 22,17.07513224813873 17.07513224813873,22 11,22 C 4.924867751861271,22 0,17.07513224813873 0,11 C 0,4.924867751861271 4.924867751861271,0 11,0 z" fill="white" stroke="none" transform="matrix(1, 0, 0, 1, 3.5, 3.5)"></path><path d="M 11,0 C 17.07513224813873,0 22,4.924867751861271 22,11 C 22,17.07513224813873 17.07513224813873,22 11,22 C 4.924867751861271,22 0,17.07513224813873 0,11 C 0,4.924867751861271 4.924867751861271,0 11,0 z" fill="none" stroke="dodgerblue" stroke-width="3" stroke-linecap="butt" stroke-linejoin="miter" stroke-miterlimit="10" transform="matrix(1, 0, 0, 1, 3.5, 3.5)"></path><path d="M 0,5.5 L 11,5.5 M 5.5,0 L 5.5,11" fill="none" stroke="dodgerblue" stroke-width="3" stroke-linecap="butt" stroke-linejoin="miter" stroke-miterlimit="10" transform="matrix(1, 0, 0, 1, 9, 9)"></path></g></g></g></g></g><g transform="matrix(1, 0, 0, 1, 252, 1055)"><g transform="matrix(1, 0, 0, 1, 0, 0)"><rect x="0" y="0" width="207" height="192" fill="red" stroke="none" transform="matrix(1, 0, 0, 1, 0, 0)"></rect><text x="0" y="19.4923828125" style="font: Normal small-caps Normal 24px Open Sans, sans-serif" text-anchor="start" fill="white" stroke="none" transform="matrix(1, 0, 0, 1, 12, 12)">assignment</text><g transform="matrix(1, 0, 0, 1, 2, 52)"><rect x="0" y="0" width="203" height="138" fill="white" stroke="none" transform="matrix(1, 0, 0, 1, 0, 0)"></rect><g transform="matrix(1, 0, 0, 1, 0, 0)"><rect x="0" y="0" width="170" height="65" fill="white" stroke="none" transform="matrix(1, 0, 0, 1, 12, 12)"></rect><text x="0" y="14.619287109375001" style="font: 18px sans-serif" text-anchor="start" fill="black" stroke="none" transform="matrix(1, 0, 0, 1, 12, 12)">Error Assignment</text><text x="0" y="34.111669921875" style="font: 18px sans-serif" text-anchor="start" fill="black" stroke="none" transform="matrix(1, 0, 0, 1, 12, 12)">from Service</text><text x="0" y="53.604052734375" style="font: 18px sans-serif" text-anchor="start" fill="black" stroke="none" transform="matrix(1, 0, 0, 1, 12, 12)">Connector</text></g><g transform="matrix(1, 0, 0, 1, 12, 97)"><text x="0" y="14.619287109375001" style="font: 18px sans-serif" text-anchor="start" fill="red" stroke="none" transform="matrix(1, 0, 0, 1, 0, 4.5)">j46nexkl</text><g transform="matrix(1, 0, 0, 1, 150, 0)"><path d="M 11,0 C 17.07513224813873,0 22,4.924867751861271 22,11 C 22,17.07513224813873 17.07513224813873,22 11,22 C 4.924867751861271,22 0,17.07513224813873 0,11 C 0,4.924867751861271 4.924867751861271,0 11,0 z" fill="white" stroke="none" transform="matrix(1, 0, 0, 1, 3.5, 3.5)"></path><path d="M 11,0 C 17.07513224813873,0 22,4.924867751861271 22,11 C 22,17.07513224813873 17.07513224813873,22 11,22 C 4.924867751861271,22 0,17.07513224813873 0,11 C 0,4.924867751861271 4.924867751861271,0 11,0 z" fill="none" stroke="dodgerblue" stroke-width="3" stroke-linecap="butt" stroke-linejoin="miter" stroke-miterlimit="10" transform="matrix(1, 0, 0, 1, 3.5, 3.5)"></path><path d="M 0,5.5 L 11,5.5 M 5.5,0 L 5.5,11" fill="none" stroke="dodgerblue" stroke-width="3" stroke-linecap="butt" stroke-linejoin="miter" stroke-miterlimit="10" transform="matrix(1, 0, 0, 1, 9, 9)"></path></g></g></g></g></g><g transform="matrix(1, 0, 0, 1, 504, 1055)"><g transform="matrix(1, 0, 0, 1, 0, 0)"><rect x="0" y="0" width="207" height="192" fill="red" stroke="none" transform="matrix(1, 0, 0, 1, 0, 0)"></rect><text x="0" y="19.4923828125" style="font: Normal small-caps Normal 24px Open Sans, sans-serif" text-anchor="start" fill="white" stroke="none" transform="matrix(1, 0, 0, 1, 12, 12)">assignment</text><g transform="matrix(1, 0, 0, 1, 2, 52)"><rect x="0" y="0" width="203" height="138" fill="white" stroke="none" transform="matrix(1, 0, 0, 1, 0, 0)"></rect><g transform="matrix(1, 0, 0, 1, 0, 0)"><rect x="0" y="0" width="170" height="65" fill="white" stroke="none" transform="matrix(1, 0, 0, 1, 12, 12)"></rect><text x="0" y="14.619287109375001" style="font: 18px sans-serif" text-anchor="start" fill="black" stroke="none" transform="matrix(1, 0, 0, 1, 12, 12)">Assign App Dynamic</text><text x="0" y="34.111669921875" style="font: 18px sans-serif" text-anchor="start" fill="black" stroke="none" transform="matrix(1, 0, 0, 1, 12, 12)">Input Values</text></g><g transform="matrix(1, 0, 0, 1, 12, 97)"><text x="0" y="14.619287109375001" style="font: 18px sans-serif" text-anchor="start" fill="red" stroke="none" transform="matrix(1, 0, 0, 1, 0, 4.5)">j2vlncmb</text><g transform="matrix(1, 0, 0, 1, 150, 0)"><path d="M 11,0 C 17.07513224813873,0 22,4.924867751861271 22,11 C 22,17.07513224813873 17.07513224813873,22 11,22 C 4.924867751861271,22 0,17.07513224813873 0,11 C 0,4.924867751861271 4.924867751861271,0 11,0 z" fill="white" stroke="none" transform="matrix(1, 0, 0, 1, 3.5, 3.5)"></path><path d="M 11,0 C 17.07513224813873,0 22,4.924867751861271 22,11 C 22,17.07513224813873 17.07513224813873,22 11,22 C 4.924867751861271,22 0,17.07513224813873 0,11 C 0,4.924867751861271 4.924867751861271,0 11,0 z" fill="none" stroke="dodgerblue" stroke-width="3" stroke-linecap="butt" stroke-linejoin="miter" stroke-miterlimit="10" transform="matrix(1, 0, 0, 1, 3.5, 3.5)"></path><path d="M 0,5.5 L 11,5.5 M 5.5,0 L 5.5,11" fill="none" stroke="dodgerblue" stroke-width="3" stroke-linecap="butt" stroke-linejoin="miter" stroke-miterlimit="10" transform="matrix(1, 0, 0, 1, 9, 9)"></path></g></g></g></g></g><g transform="matrix(1, 0, 0, 1, 756, 1055)"><g transform="matrix(1, 0, 0, 1, 0, 0)"><rect x="0" y="0" width="207" height="192" fill="red" stroke="none" transform="matrix(1, 0, 0, 1, 0, 0)"></rect><text x="0" y="19.4923828125" style="font: Normal small-caps Normal 24px Open Sans, sans-serif" text-anchor="start" fill="white" stroke="none" transform="matrix(1, 0, 0, 1, 12, 12)">assignment</text><g transform="matrix(1, 0, 0, 1, 2, 52)"><rect x="0" y="0" width="203" height="138" fill="white" stroke="none" transform="matrix(1, 0, 0, 1, 0, 0)"></rect><g transform="matrix(1, 0, 0, 1, 0, 0)"><rect x="0" y="0" width="170" height="65" fill="white" stroke="none" transform="matrix(1, 0, 0, 1, 12, 12)"></rect><text x="0" y="14.619287109375001" style="font: 18px sans-serif" text-anchor="start" fill="black" stroke="none" transform="matrix(1, 0, 0, 1, 12, 12)">Assign Error</text><text x="0" y="34.111669921875" style="font: 18px sans-serif" text-anchor="start" fill="black" stroke="none" transform="matrix(1, 0, 0, 1, 12, 12)">Response</text></g><g transform="matrix(1, 0, 0, 1, 12, 97)"><text x="0" y="14.619287109375001" style="font: 18px sans-serif" text-anchor="start" fill="red" stroke="none" transform="matrix(1, 0, 0, 1, 0, 4.5)">j2vlncta</text><g transform="matrix(1, 0, 0, 1, 150, 0)"><path d="M 11,0 C 17.07513224813873,0 22,4.924867751861271 22,11 C 22,17.07513224813873 17.07513224813873,22 11,22 C 4.924867751861271,22 0,17.07513224813873 0,11 C 0,4.924867751861271 4.924867751861271,0 11,0 z" fill="white" stroke="none" transform="matrix(1, 0, 0, 1, 3.5, 3.5)"></path><path d="M 11,0 C 17.07513224813873,0 22,4.924867751861271 22,11 C 22,17.07513224813873 17.07513224813873,22 11,22 C 4.924867751861271,22 0,17.07513224813873 0,11 C 0,4.924867751861271 4.924867751861271,0 11,0 z" fill="none" stroke="dodgerblue" stroke-width="3" stroke-linecap="butt" stroke-linejoin="miter" stroke-miterlimit="10" transform="matrix(1, 0, 0, 1, 3.5, 3.5)"></path><path d="M 0,5.5 L 11,5.5 M 5.5,0 L 5.5,11" fill="none" stroke="dodgerblue" stroke-width="3" stroke-linecap="butt" stroke-linejoin="miter" stroke-miterlimit="10" transform="matrix(1, 0, 0, 1, 9, 9)"></path></g></g></g></g></g><g transform="matrix(1, 0, 0, 1, 1512, 1055)"><g transform="matrix(1, 0, 0, 1, 0, 0)"><rect x="0" y="0" width="207" height="192" fill="red" stroke="none" transform="matrix(1, 0, 0, 1, 0, 0)"></rect><text x="0" y="19.4923828125" style="font: Normal small-caps Normal 24px Open Sans, sans-serif" text-anchor="start" fill="white" stroke="none" transform="matrix(1, 0, 0, 1, 12, 12)">assignment</text><g transform="matrix(1, 0, 0, 1, 2, 52)"><rect x="0" y="0" width="203" height="138" fill="white" stroke="none" transform="matrix(1, 0, 0, 1, 0, 0)"></rect><g transform="matrix(1, 0, 0, 1, 0, 0)"><rect x="0" y="0" width="170" height="65" fill="white" stroke="none" transform="matrix(1, 0, 0, 1, 12, 12)"></rect><text x="0" y="14.619287109375001" style="font: 18px sans-serif" text-anchor="start" fill="black" stroke="none" transform="matrix(1, 0, 0, 1, 12, 12)">map translation of</text><text x="0" y="34.111669921875" style="font: 18px sans-serif" text-anchor="start" fill="black" stroke="none" transform="matrix(1, 0, 0, 1, 12, 12)">error</text></g><g transform="matrix(1, 0, 0, 1, 12, 97)"><text x="0" y="14.619287109375001" style="font: 18px sans-serif" text-anchor="start" fill="red" stroke="none" transform="matrix(1, 0, 0, 1, 0, 4.5)">j7zpetla</text><g transform="matrix(1, 0, 0, 1, 150, 0)"><path d="M 11,0 C 17.07513224813873,0 22,4.924867751861271 22,11 C 22,17.07513224813873 17.07513224813873,22 11,22 C 4.924867751861271,22 0,17.07513224813873 0,11 C 0,4.924867751861271 4.924867751861271,0 11,0 z" fill="white" stroke="none" transform="matrix(1, 0, 0, 1, 3.5, 3.5)"></path><path d="M 11,0 C 17.07513224813873,0 22,4.924867751861271 22,11 C 22,17.07513224813873 17.07513224813873,22 11,22 C 4.924867751861271,22 0,17.07513224813873 0,11 C 0,4.924867751861271 4.924867751861271,0 11,0 z" fill="none" stroke="dodgerblue" stroke-width="3" stroke-linecap="butt" stroke-linejoin="miter" stroke-miterlimit="10" transform="matrix(1, 0, 0, 1, 3.5, 3.5)"></path><path d="M 0,5.5 L 11,5.5 M 5.5,0 L 5.5,11" fill="none" stroke="dodgerblue" stroke-width="3" stroke-linecap="butt" stroke-linejoin="miter" stroke-miterlimit="10" transform="matrix(1, 0, 0, 1, 9, 9)"></path></g></g></g></g></g><g transform="matrix(1, 0, 0, 1, 252, 419)"><g transform="matrix(1, 0, 0, 1, 0, 0)"><rect x="0" y="0" width="207" height="192" fill="red" stroke="none" transform="matrix(1, 0, 0, 1, 0, 0)"></rect><text x="0" y="19.4923828125" style="font: Normal small-caps Normal 24px Open Sans, sans-serif" text-anchor="start" fill="white" stroke="none" transform="matrix(1, 0, 0, 1, 12, 12)">assignment</text><g transform="matrix(1, 0, 0, 1, 2, 52)"><rect x="0" y="0" width="203" height="138" fill="white" stroke="none" transform="matrix(1, 0, 0, 1, 0, 0)"></rect><g transform="matrix(1, 0, 0, 1, 0, 0)"><rect x="0" y="0" width="170" height="65" fill="white" stroke="none" transform="matrix(1, 0, 0, 1, 12, 12)"></rect><text x="0" y="14.619287109375001" style="font: 18px sans-serif" text-anchor="start" fill="black" stroke="none" transform="matrix(1, 0, 0, 1, 12, 12)">Assignment error</text><text x="0" y="34.111669921875" style="font: 18px sans-serif" text-anchor="start" fill="black" stroke="none" transform="matrix(1, 0, 0, 1, 12, 12)">message for</text><text x="0" y="53.604052734375" style="font: 18px sans-serif" text-anchor="start" fill="black" stroke="none" transform="matrix(1, 0, 0, 1, 12, 12)">TIMEOUT</text></g><g transform="matrix(1, 0, 0, 1, 12, 97)"><text x="0" y="14.619287109375001" style="font: 18px sans-serif" text-anchor="start" fill="red" stroke="none" transform="matrix(1, 0, 0, 1, 0, 4.5)">j50ysohg</text><g transform="matrix(1, 0, 0, 1, 150, 0)"><path d="M 11,0 C 17.07513224813873,0 22,4.924867751861271 22,11 C 22,17.07513224813873 17.07513224813873,22 11,22 C 4.924867751861271,22 0,17.07513224813873 0,11 C 0,4.924867751861271 4.924867751861271,0 11,0 z" fill="white" stroke="none" transform="matrix(1, 0, 0, 1, 3.5, 3.5)"></path><path d="M 11,0 C 17.07513224813873,0 22,4.924867751861271 22,11 C 22,17.07513224813873 17.07513224813873,22 11,22 C 4.924867751861271,22 0,17.07513224813873 0,11 C 0,4.924867751861271 4.924867751861271,0 11,0 z" fill="none" stroke="dodgerblue" stroke-width="3" stroke-linecap="butt" stroke-linejoin="miter" stroke-miterlimit="10" transform="matrix(1, 0, 0, 1, 3.5, 3.5)"></path><path d="M 0,5.5 L 11,5.5 M 5.5,0 L 5.5,11" fill="none" stroke="dodgerblue" stroke-width="3" stroke-linecap="butt" stroke-linejoin="miter" stroke-miterlimit="10" transform="matrix(1, 0, 0, 1, 9, 9)"></path></g></g></g></g></g><g transform="matrix(1, 0, 0, 1, 252, 636)"><g transform="matrix(1, 0, 0, 1, 0, 0)"><rect x="0" y="0" width="207" height="192" fill="red" stroke="none" transform="matrix(1, 0, 0, 1, 0, 0)"></rect><text x="0" y="19.4923828125" style="font: Normal small-caps Normal 24px Open Sans, sans-serif" text-anchor="start" fill="white" stroke="none" transform="matrix(1, 0, 0, 1, 12, 12)">assignment</text><g transform="matrix(1, 0, 0, 1, 2, 52)"><rect x="0" y="0" width="203" height="138" fill="white" stroke="none" transform="matrix(1, 0, 0, 1, 0, 0)"></rect><g transform="matrix(1, 0, 0, 1, 0, 0)"><rect x="0" y="0" width="170" height="65" fill="white" stroke="none" transform="matrix(1, 0, 0, 1, 12, 12)"></rect><text x="0" y="14.619287109375001" style="font: 18px sans-serif" text-anchor="start" fill="black" stroke="none" transform="matrix(1, 0, 0, 1, 12, 12)">Assignment to</text><text x="0" y="34.111669921875" style="font: 18px sans-serif" text-anchor="start" fill="black" stroke="none" transform="matrix(1, 0, 0, 1, 12, 12)">service fault errors</text></g><g transform="matrix(1, 0, 0, 1, 12, 97)"><text x="0" y="14.619287109375001" style="font: 18px sans-serif" text-anchor="start" fill="red" stroke="none" transform="matrix(1, 0, 0, 1, 0, 4.5)">j3k34pef</text><g transform="matrix(1, 0, 0, 1, 150, 0)"><path d="M 11,0 C 17.07513224813873,0 22,4.924867751861271 22,11 C 22,17.07513224813873 17.07513224813873,22 11,22 C 4.924867751861271,22 0,17.07513224813873 0,11 C 0,4.924867751861271 4.924867751861271,0 11,0 z" fill="white" stroke="none" transform="matrix(1, 0, 0, 1, 3.5, 3.5)"></path><path d="M 11,0 C 17.07513224813873,0 22,4.924867751861271 22,11 C 22,17.07513224813873 17.07513224813873,22 11,22 C 4.924867751861271,22 0,17.07513224813873 0,11 C 0,4.924867751861271 4.924867751861271,0 11,0 z" fill="none" stroke="dodgerblue" stroke-width="3" stroke-linecap="butt" stroke-linejoin="miter" stroke-miterlimit="10" transform="matrix(1, 0, 0, 1, 3.5, 3.5)"></path><path d="M 0,5.5 L 11,5.5 M 5.5,0 L 5.5,11" fill="none" stroke="dodgerblue" stroke-width="3" stroke-linecap="butt" stroke-linejoin="miter" stroke-miterlimit="10" transform="matrix(1, 0, 0, 1, 9, 9)"></path></g></g></g></g></g><g transform="matrix(1, 0, 0, 1, 504, 419)"><g transform="matrix(1, 0, 0, 1, 0, 0)"><rect x="0" y="0" width="207" height="192" fill="green" stroke="none" transform="matrix(1, 0, 0, 1, 0, 0)"></rect><text x="0" y="19.4923828125" style="font: Normal small-caps Normal 24px Open Sans, sans-serif" text-anchor="start" fill="white" stroke="none" transform="matrix(1, 0, 0, 1, 12, 12)">jumpTo</text><g transform="matrix(1, 0, 0, 1, 2, 52)"><rect x="0" y="0" width="203" height="138" fill="white" stroke="none" transform="matrix(1, 0, 0, 1, 0, 0)"></rect><rect x="0" y="0" width="170" height="65" fill="white" stroke="none" transform="matrix(1, 0, 0, 1, 12, 12)"></rect><g transform="matrix(1, 0, 0, 1, 12, 97)"><text x="0" y="14.619287109375001" style="font: 18px sans-serif" text-anchor="start" fill="red" stroke="none" transform="matrix(1, 0, 0, 1, 0, 4.5)">j3k34pca</text><g transform="matrix(1, 0, 0, 1, 150, 0)"><path d="M 11,0 C 17.07513224813873,0 22,4.924867751861271 22,11 C 22,17.07513224813873 17.07513224813873,22 11,22 C 4.924867751861271,22 0,17.07513224813873 0,11 C 0,4.924867751861271 4.924867751861271,0 11,0 z" fill="white" stroke="none" transform="matrix(1, 0, 0, 1, 3.5, 3.5)"></path><path d="M 11,0 C 17.07513224813873,0 22,4.924867751861271 22,11 C 22,17.07513224813873 17.07513224813873,22 11,22 C 4.924867751861271,22 0,17.07513224813873 0,11 C 0,4.924867751861271 4.924867751861271,0 11,0 z" fill="none" stroke="dodgerblue" stroke-width="3" stroke-linecap="butt" stroke-linejoin="miter" stroke-miterlimit="10" transform="matrix(1, 0, 0, 1, 3.5, 3.5)"></path><path d="M 0,5.5 L 11,5.5 M 5.5,0 L 5.5,11" fill="none" stroke="dodgerblue" stroke-width="3" stroke-linecap="butt" stroke-linejoin="miter" stroke-miterlimit="10" transform="matrix(1, 0, 0, 1, 9, 9)"></path></g></g></g></g></g><g transform="matrix(1, 0, 0, 1, 504, 636)"><g transform="matrix(1, 0, 0, 1, 0, 0)"><rect x="0" y="0" width="207" height="192" fill="green" stroke="none" transform="matrix(1, 0, 0, 1, 0, 0)"></rect><text x="0" y="19.4923828125" style="font: Normal small-caps Normal 24px Open Sans, sans-serif" text-anchor="start" fill="white" stroke="none" transform="matrix(1, 0, 0, 1, 12, 12)">jumpTo</text><g transform="matrix(1, 0, 0, 1, 2, 52)"><rect x="0" y="0" width="203" height="138" fill="white" stroke="none" transform="matrix(1, 0, 0, 1, 0, 0)"></rect><rect x="0" y="0" width="170" height="65" fill="white" stroke="none" transform="matrix(1, 0, 0, 1, 12, 12)"></rect><g transform="matrix(1, 0, 0, 1, 12, 97)"><text x="0" y="14.619287109375001" style="font: 18px sans-serif" text-anchor="start" fill="red" stroke="none" transform="matrix(1, 0, 0, 1, 0, 4.5)">j3k34pfu</text><g transform="matrix(1, 0, 0, 1, 150, 0)"><path d="M 11,0 C 17.07513224813873,0 22,4.924867751861271 22,11 C 22,17.07513224813873 17.07513224813873,22 11,22 C 4.924867751861271,22 0,17.07513224813873 0,11 C 0,4.924867751861271 4.924867751861271,0 11,0 z" fill="white" stroke="none" transform="matrix(1, 0, 0, 1, 3.5, 3.5)"></path><path d="M 11,0 C 17.07513224813873,0 22,4.924867751861271 22,11 C 22,17.07513224813873 17.07513224813873,22 11,22 C 4.924867751861271,22 0,17.07513224813873 0,11 C 0,4.924867751861271 4.924867751861271,0 11,0 z" fill="none" stroke="dodgerblue" stroke-width="3" stroke-linecap="butt" stroke-linejoin="miter" stroke-miterlimit="10" transform="matrix(1, 0, 0, 1, 3.5, 3.5)"></path><path d="M 0,5.5 L 11,5.5 M 5.5,0 L 5.5,11" fill="none" stroke="dodgerblue" stroke-width="3" stroke-linecap="butt" stroke-linejoin="miter" stroke-miterlimit="10" transform="matrix(1, 0, 0, 1, 9, 9)"></path></g></g></g></g></g><g transform="matrix(1, 0, 0, 1, 1512, 108.5)"><g transform="matrix(1, 0, 0, 1, 0, 0)"><rect x="0" y="0" width="207" height="192" fill="brown" stroke="none" transform="matrix(1, 0, 0, 1, 0, 0)"></rect><text x="0" y="19.4923828125" style="font: Normal small-caps Normal 24px Open Sans, sans-serif" text-anchor="start" fill="white" stroke="none" transform="matrix(1, 0, 0, 1, 12, 12)">container</text><g transform="matrix(1, 0, 0, 1, 2, 52)"><rect x="0" y="0" width="203" height="138" fill="white" stroke="none" transform="matrix(1, 0, 0, 1, 0, 0)"></rect><rect x="0" y="0" width="170" height="65" fill="white" stroke="none" transform="matrix(1, 0, 0, 1, 12, 12)"></rect><text x="0" y="14.619287109375001" style="font: 18px sans-serif" text-anchor="start" fill="black" stroke="none" transform="matrix(1, 0, 0, 1, 12, 12)">LRP Flow</text><g transform="matrix(1, 0, 0, 1, 12, 97)"><text x="0" y="14.619287109375001" style="font: 18px sans-serif" text-anchor="start" fill="red" stroke="none" transform="matrix(1, 0, 0, 1, 0, 4.5)">j50yso33</text><g transform="matrix(1, 0, 0, 1, 150, 0)"><path d="M 11,0 C 17.07513224813873,0 22,4.924867751861271 22,11 C 22,17.07513224813873 17.07513224813873,22 11,22 C 4.924867751861271,22 0,17.07513224813873 0,11 C 0,4.924867751861271 4.924867751861271,0 11,0 z" fill="white" stroke="none" transform="matrix(1, 0, 0, 1, 3.5, 3.5)"></path><path d="M 11,0 C 17.07513224813873,0 22,4.924867751861271 22,11 C 22,17.07513224813873 17.07513224813873,22 11,22 C 4.924867751861271,22 0,17.07513224813873 0,11 C 0,4.924867751861271 4.924867751861271,0 11,0 z" fill="none" stroke="dodgerblue" stroke-width="3" stroke-linecap="butt" stroke-linejoin="miter" stroke-miterlimit="10" transform="matrix(1, 0, 0, 1, 3.5, 3.5)"></path><path d="M 0,5.5 L 11,5.5 M 5.5,0 L 5.5,11" fill="none" stroke="dodgerblue" stroke-width="3" stroke-linecap="butt" stroke-linejoin="miter" stroke-miterlimit="10" transform="matrix(1, 0, 0, 1, 9, 9)"></path></g></g></g></g></g><g transform="matrix(1, 0, 0, 1, 0, 946.5)"><g transform="matrix(1, 0, 0, 1, 0, 0)"><rect x="0" y="0" width="207" height="192" fill="brown" stroke="none" transform="matrix(1, 0, 0, 1, 0, 0)"></rect><text x="0" y="19.4923828125" style="font: Normal small-caps Normal 24px Open Sans, sans-serif" text-anchor="start" fill="white" stroke="none" transform="matrix(1, 0, 0, 1, 12, 12)">container</text><g transform="matrix(1, 0, 0, 1, 2, 52)"><rect x="0" y="0" width="203" height="138" fill="white" stroke="none" transform="matrix(1, 0, 0, 1, 0, 0)"></rect><rect x="0" y="0" width="170" height="65" fill="white" stroke="none" transform="matrix(1, 0, 0, 1, 12, 12)"></rect><text x="0" y="14.619287109375001" style="font: 18px sans-serif" text-anchor="start" fill="black" stroke="none" transform="matrix(1, 0, 0, 1, 12, 12)">HTTP Status</text><g transform="matrix(1, 0, 0, 1, 12, 97)"><text x="0" y="14.619287109375001" style="font: 18px sans-serif" text-anchor="start" fill="red" stroke="none" transform="matrix(1, 0, 0, 1, 0, 4.5)">j2vlncle</text><g transform="matrix(1, 0, 0, 1, 150, 0)"><path d="M 11,0 C 17.07513224813873,0 22,4.924867751861271 22,11 C 22,17.07513224813873 17.07513224813873,22 11,22 C 4.924867751861271,22 0,17.07513224813873 0,11 C 0,4.924867751861271 4.924867751861271,0 11,0 z" fill="white" stroke="none" transform="matrix(1, 0, 0, 1, 3.5, 3.5)"></path><path d="M 11,0 C 17.07513224813873,0 22,4.924867751861271 22,11 C 22,17.07513224813873 17.07513224813873,22 11,22 C 4.924867751861271,22 0,17.07513224813873 0,11 C 0,4.924867751861271 4.924867751861271,0 11,0 z" fill="none" stroke="dodgerblue" stroke-width="3" stroke-linecap="butt" stroke-linejoin="miter" stroke-miterlimit="10" transform="matrix(1, 0, 0, 1, 3.5, 3.5)"></path><path d="M 0,5.5 L 11,5.5 M 5.5,0 L 5.5,11" fill="none" stroke="dodgerblue" stroke-width="3" stroke-linecap="butt" stroke-linejoin="miter" stroke-miterlimit="10" transform="matrix(1, 0, 0, 1, 9, 9)"></path></g></g></g></g></g><g transform="matrix(1, 0, 0, 1, 2268, 217)"><g transform="matrix(1, 0, 0, 1, 0, 0)"><rect x="0" y="0" width="207" height="192" fill="black" stroke="none" transform="matrix(1, 0, 0, 1, 0, 0)"></rect><text x="0" y="19.4923828125" style="font: Normal small-caps Normal 24px Open Sans, sans-serif" text-anchor="start" fill="white" stroke="none" transform="matrix(1, 0, 0, 1, 12, 12)">end</text><g transform="matrix(1, 0, 0, 1, 2, 52)"><rect x="0" y="0" width="203" height="138" fill="white" stroke="none" transform="matrix(1, 0, 0, 1, 0, 0)"></rect><rect x="0" y="0" width="170" height="65" fill="white" stroke="none" transform="matrix(1, 0, 0, 1, 12, 12)"></rect><g transform="matrix(1, 0, 0, 1, 12, 97)"><text x="0" y="14.619287109375001" style="font: 18px sans-serif" text-anchor="start" fill="red" stroke="none" transform="matrix(1, 0, 0, 1, 0, 4.5)">j7zpeu8s</text><g transform="matrix(1, 0, 0, 1, 150, 0)"><path d="M 11,0 C 17.07513224813873,0 22,4.924867751861271 22,11 C 22,17.07513224813873 17.07513224813873,22 11,22 C 4.924867751861271,22 0,17.07513224813873 0,11 C 0,4.924867751861271 4.924867751861271,0 11,0 z" fill="white" stroke="none" transform="matrix(1, 0, 0, 1, 3.5, 3.5)"></path><path d="M 11,0 C 17.07513224813873,0 22,4.924867751861271 22,11 C 22,17.07513224813873 17.07513224813873,22 11,22 C 4.924867751861271,22 0,17.07513224813873 0,11 C 0,4.924867751861271 4.924867751861271,0 11,0 z" fill="none" stroke="dodgerblue" stroke-width="3" stroke-linecap="butt" stroke-linejoin="miter" stroke-miterlimit="10" transform="matrix(1, 0, 0, 1, 3.5, 3.5)"></path><path d="M 0,5.5 L 11,5.5 M 5.5,0 L 5.5,11" fill="none" stroke="dodgerblue" stroke-width="3" stroke-linecap="butt" stroke-linejoin="miter" stroke-miterlimit="10" transform="matrix(1, 0, 0, 1, 9, 9)"></path></g></g></g></g></g><g transform="matrix(1, 0, 0, 1, 1512, 838)"><g transform="matrix(1, 0, 0, 1, 0, 0)"><rect x="0" y="0" width="207" height="192" fill="black" stroke="none" transform="matrix(1, 0, 0, 1, 0, 0)"></rect><text x="0" y="19.4923828125" style="font: Normal small-caps Normal 24px Open Sans, sans-serif" text-anchor="start" fill="white" stroke="none" transform="matrix(1, 0, 0, 1, 12, 12)">end</text><g transform="matrix(1, 0, 0, 1, 2, 52)"><rect x="0" y="0" width="203" height="138" fill="white" stroke="none" transform="matrix(1, 0, 0, 1, 0, 0)"></rect><rect x="0" y="0" width="170" height="65" fill="white" stroke="none" transform="matrix(1, 0, 0, 1, 12, 12)"></rect><text x="0" y="14.619287109375001" style="font: 18px sans-serif" text-anchor="start" fill="black" stroke="none" transform="matrix(1, 0, 0, 1, 12, 12)">End - Success Flow</text><g transform="matrix(1, 0, 0, 1, 12, 97)"><text x="0" y="14.619287109375001" style="font: 18px sans-serif" text-anchor="start" fill="red" stroke="none" transform="matrix(1, 0, 0, 1, 0, 4.5)">j3e8tssq</text><g transform="matrix(1, 0, 0, 1, 150, 0)"><path d="M 11,0 C 17.07513224813873,0 22,4.924867751861271 22,11 C 22,17.07513224813873 17.07513224813873,22 11,22 C 4.924867751861271,22 0,17.07513224813873 0,11 C 0,4.924867751861271 4.924867751861271,0 11,0 z" fill="white" stroke="none" transform="matrix(1, 0, 0, 1, 3.5, 3.5)"></path><path d="M 11,0 C 17.07513224813873,0 22,4.924867751861271 22,11 C 22,17.07513224813873 17.07513224813873,22 11,22 C 4.924867751861271,22 0,17.07513224813873 0,11 C 0,4.924867751861271 4.924867751861271,0 11,0 z" fill="none" stroke="dodgerblue" stroke-width="3" stroke-linecap="butt" stroke-linejoin="miter" stroke-miterlimit="10" transform="matrix(1, 0, 0, 1, 3.5, 3.5)"></path><path d="M 0,5.5 L 11,5.5 M 5.5,0 L 5.5,11" fill="none" stroke="dodgerblue" stroke-width="3" stroke-linecap="butt" stroke-linejoin="miter" stroke-miterlimit="10" transform="matrix(1, 0, 0, 1, 9, 9)"></path></g></g></g></g></g><g transform="matrix(1, 0, 0, 1, 1764, 1055)"><g transform="matrix(1, 0, 0, 1, 0, 0)"><rect x="0" y="0" width="207" height="192" fill="black" stroke="none" transform="matrix(1, 0, 0, 1, 0, 0)"></rect><text x="0" y="19.4923828125" style="font: Normal small-caps Normal 24px Open Sans, sans-serif" text-anchor="start" fill="white" stroke="none" transform="matrix(1, 0, 0, 1, 12, 12)">end</text><g transform="matrix(1, 0, 0, 1, 2, 52)"><rect x="0" y="0" width="203" height="138" fill="white" stroke="none" transform="matrix(1, 0, 0, 1, 0, 0)"></rect><g transform="matrix(1, 0, 0, 1, 0, 0)"><rect x="0" y="0" width="170" height="65" fill="white" stroke="none" transform="matrix(1, 0, 0, 1, 12, 12)"></rect><text x="0" y="14.619287109375001" style="font: 18px sans-serif" text-anchor="start" fill="black" stroke="none" transform="matrix(1, 0, 0, 1, 12, 12)">End - Error</text><text x="0" y="34.111669921875" style="font: 18px sans-serif" text-anchor="start" fill="black" stroke="none" transform="matrix(1, 0, 0, 1, 12, 12)">Response</text></g><g transform="matrix(1, 0, 0, 1, 12, 97)"><text x="0" y="14.619287109375001" style="font: 18px sans-serif" text-anchor="start" fill="red" stroke="none" transform="matrix(1, 0, 0, 1, 0, 4.5)">j3e8tsuv</text><g transform="matrix(1, 0, 0, 1, 150, 0)"><path d="M 11,0 C 17.07513224813873,0 22,4.924867751861271 22,11 C 22,17.07513224813873 17.07513224813873,22 11,22 C 4.924867751861271,22 0,17.07513224813873 0,11 C 0,4.924867751861271 4.924867751861271,0 11,0 z" fill="white" stroke="none" transform="matrix(1, 0, 0, 1, 3.5, 3.5)"></path><path d="M 11,0 C 17.07513224813873,0 22,4.924867751861271 22,11 C 22,17.07513224813873 17.07513224813873,22 11,22 C 4.924867751861271,22 0,17.07513224813873 0,11 C 0,4.924867751861271 4.924867751861271,0 11,0 z" fill="none" stroke="dodgerblue" stroke-width="3" stroke-linecap="butt" stroke-linejoin="miter" stroke-miterlimit="10" transform="matrix(1, 0, 0, 1, 3.5, 3.5)"></path><path d="M 0,5.5 L 11,5.5 M 5.5,0 L 5.5,11" fill="none" stroke="dodgerblue" stroke-width="3" stroke-linecap="butt" stroke-linejoin="miter" stroke-miterlimit="10" transform="matrix(1, 0, 0, 1, 9, 9)"></path></g></g></g></g></g><g transform="matrix(1, 0, 0, 1, 205.5, 203)"><path d="M 0,0 L 45,0" fill="none" stroke="#555" stroke-width="3" stroke-linecap="butt" stroke-linejoin="miter" stroke-miterlimit="10" transform="matrix(1, 0, 0, 1, 1.5, 1.5)"></path></g><g transform="matrix(1, 0, 0, 1, 457.5, 203)"><path d="M 0,0 L 45,0" fill="none" stroke="#555" stroke-width="3" stroke-linecap="butt" stroke-linejoin="miter" stroke-miterlimit="10" transform="matrix(1, 0, 0, 1, 1.5, 1.5)"></path></g><g transform="matrix(1, 0, 0, 1, 1213.5, 203)"><path d="M 0,0 L 45,0" fill="none" stroke="#555" stroke-width="3" stroke-linecap="butt" stroke-linejoin="miter" stroke-miterlimit="10" transform="matrix(1, 0, 0, 1, 1.5, 1.5)"></path></g><g transform="matrix(1, 0, 0, 1, 1969.5, 94.5)"><path d="M 0,0 L 45,0" fill="none" stroke="#555" stroke-width="3" stroke-linecap="butt" stroke-linejoin="miter" stroke-miterlimit="10" transform="matrix(1, 0, 0, 1, 1.5, 1.5)"></path></g><g transform="matrix(1, 0, 0, 1, 709.5, 203)"><path d="M 0,0 L 45,0" fill="none" stroke="#555" stroke-width="3" stroke-linecap="butt" stroke-linejoin="miter" stroke-miterlimit="10" transform="matrix(1, 0, 0, 1, 1.5, 1.5)"></path></g><g transform="matrix(1, 0, 0, 1, 961.5, 203)"><path d="M 0,0 L 45,0" fill="none" stroke="#555" stroke-width="3" stroke-linecap="butt" stroke-linejoin="miter" stroke-miterlimit="10" transform="matrix(1, 0, 0, 1, 1.5, 1.5)"></path></g><g transform="matrix(1, 0, 0, 1, 1465.5, 203)"><path d="M 0,0 L 45,0" fill="none" stroke="#555" stroke-width="3" stroke-linecap="butt" stroke-linejoin="miter" stroke-miterlimit="10" transform="matrix(1, 0, 0, 1, 1.5, 1.5)"></path></g><g transform="matrix(1, 0, 0, 1, 1969.5, 311.5)"><path d="M 0,0 L 45,0" fill="none" stroke="#555" stroke-width="3" stroke-linecap="butt" stroke-linejoin="miter" stroke-miterlimit="10" transform="matrix(1, 0, 0, 1, 1.5, 1.5)"></path></g><g transform="matrix(1, 0, 0, 1, 2221.5, 311.5)"><path d="M 0,0 L 45,0" fill="none" stroke="#555" stroke-width="3" stroke-linecap="butt" stroke-linejoin="miter" stroke-miterlimit="10" transform="matrix(1, 0, 0, 1, 1.5, 1.5)"></path></g><g transform="matrix(1, 0, 0, 1, 1717.5, 94.5)"><path d="M 0,108.5 L 17.5,108.5 Q 22.5,108.5 22.5,103.5 L 22.5,5 Q 22.5,0 27.5,0 L 45,0" fill="none" stroke="#555" stroke-width="3" stroke-linecap="butt" stroke-linejoin="miter" stroke-miterlimit="10" transform="matrix(1, 0, 0, 1, 1.5, 1.5)"></path></g><g transform="matrix(1, 0, 0, 1, 457.5, 932.5)"><path d="M 0,0 L 45,0" fill="none" stroke="#555" stroke-width="3" stroke-linecap="butt" stroke-linejoin="miter" stroke-miterlimit="10" transform="matrix(1, 0, 0, 1, 1.5, 1.5)"></path></g><g transform="matrix(1, 0, 0, 1, 961.5, 932.5)"><path d="M 0,0 L 45,0" fill="none" stroke="#555" stroke-width="3" stroke-linecap="butt" stroke-linejoin="miter" stroke-miterlimit="10" transform="matrix(1, 0, 0, 1, 1.5, 1.5)"></path></g><g transform="matrix(1, 0, 0, 1, 1213.5, 932.5)"><path d="M 0,0 L 45,0" fill="none" stroke="#555" stroke-width="3" stroke-linecap="butt" stroke-linejoin="miter" stroke-miterlimit="10" transform="matrix(1, 0, 0, 1, 1.5, 1.5)"></path></g><g transform="matrix(1, 0, 0, 1, 709.5, 932.5)"><path d="M 0,0 L 45,0" fill="none" stroke="#555" stroke-width="3" stroke-linecap="butt" stroke-linejoin="miter" stroke-miterlimit="10" transform="matrix(1, 0, 0, 1, 1.5, 1.5)"></path></g><g transform="matrix(1, 0, 0, 1, 1465.5, 932.5)"><path d="M 0,0 L 45,0" fill="none" stroke="#555" stroke-width="3" stroke-linecap="butt" stroke-linejoin="miter" stroke-miterlimit="10" transform="matrix(1, 0, 0, 1, 1.5, 1.5)"></path></g><g transform="matrix(1, 0, 0, 1, 457.5, 1149.5)"><path d="M 0,0 L 45,0" fill="none" stroke="#555" stroke-width="3" stroke-linecap="butt" stroke-linejoin="miter" stroke-miterlimit="10" transform="matrix(1, 0, 0, 1, 1.5, 1.5)"></path></g><g transform="matrix(1, 0, 0, 1, 709.5, 1149.5)"><path d="M 0,0 L 45,0" fill="none" stroke="#555" stroke-width="3" stroke-linecap="butt" stroke-linejoin="miter" stroke-miterlimit="10" transform="matrix(1, 0, 0, 1, 1.5, 1.5)"></path></g><g transform="matrix(1, 0, 0, 1, 961.5, 1149.5)"><path d="M 0,0 L 45,0" fill="none" stroke="#555" stroke-width="3" stroke-linecap="butt" stroke-linejoin="miter" stroke-miterlimit="10" transform="matrix(1, 0, 0, 1, 1.5, 1.5)"></path></g><g transform="matrix(1, 0, 0, 1, 1717.5, 1149.5)"><path d="M 0,0 L 45,0" fill="none" stroke="#555" stroke-width="3" stroke-linecap="butt" stroke-linejoin="miter" stroke-miterlimit="10" transform="matrix(1, 0, 0, 1, 1.5, 1.5)"></path></g><g transform="matrix(1, 0, 0, 1, 1213.5, 1149.5)"><path d="M 0,0 L 45,0" fill="none" stroke="#555" stroke-width="3" stroke-linecap="butt" stroke-linejoin="miter" stroke-miterlimit="10" transform="matrix(1, 0, 0, 1, 1.5, 1.5)"></path></g><g transform="matrix(1, 0, 0, 1, 1465.5, 1149.5)"><path d="M 0,0 L 45,0" fill="none" stroke="#555" stroke-width="3" stroke-linecap="butt" stroke-linejoin="miter" stroke-miterlimit="10" transform="matrix(1, 0, 0, 1, 1.5, 1.5)"></path></g><g transform="matrix(1, 0, 0, 1, 457.5, 513.5)"><path d="M 0,0 L 45,0" fill="none" stroke="#555" stroke-width="3" stroke-linecap="butt" stroke-linejoin="miter" stroke-miterlimit="10" transform="matrix(1, 0, 0, 1, 1.5, 1.5)"></path></g><g transform="matrix(1, 0, 0, 1, 457.5, 730.5)"><path d="M 0,0 L 45,0" fill="none" stroke="#555" stroke-width="3" stroke-linecap="butt" stroke-linejoin="miter" stroke-miterlimit="10" transform="matrix(1, 0, 0, 1, 1.5, 1.5)"></path></g><g transform="matrix(1, 0, 0, 1, 1717.5, 203)"><path d="M 0,0 L 17.5,0 Q 22.5,0 22.5,5 L 22.5,103.5 Q 22.5,108.5 27.5,108.5 L 45,108.5" fill="none" stroke="#555" stroke-width="3" stroke-linecap="butt" stroke-linejoin="miter" stroke-miterlimit="10" transform="matrix(1, 0, 0, 1, 1.5, 1.5)"></path></g><g transform="matrix(1, 0, 0, 1, 205.5, 932.5)"><path d="M 0,108.5 L 17.5,108.5 Q 22.5,108.5 22.5,103.5 L 22.5,5 Q 22.5,0 27.5,0 L 45,0" fill="none" stroke="#555" stroke-width="3" stroke-linecap="butt" stroke-linejoin="miter" stroke-miterlimit="10" transform="matrix(1, 0, 0, 1, 1.5, 1.5)"></path></g><g transform="matrix(1, 0, 0, 1, 205.5, 1041)"><path d="M 0,0 L 17.5,0 Q 22.5,0 22.5,5 L 22.5,103.5 Q 22.5,108.5 27.5,108.5 L 45,108.5" fill="none" stroke="#555" stroke-width="3" stroke-linecap="butt" stroke-linejoin="miter" stroke-miterlimit="10" transform="matrix(1, 0, 0, 1, 1.5, 1.5)"></path></g><g transform="matrix(1, 0, 0, 1, 205.5, 513.5)"><path d="M 0,108.5 L 17.5,108.5 Q 22.5,108.5 22.5,103.5 L 22.5,5 Q 22.5,0 27.5,0 L 45,0" fill="none" stroke="#555" stroke-width="3" stroke-linecap="butt" stroke-linejoin="miter" stroke-miterlimit="10" transform="matrix(1, 0, 0, 1, 1.5, 1.5)"></path></g><g transform="matrix(1, 0, 0, 1, 205.5, 622)"><path d="M 0,0 L 17.5,0 Q 22.5,0 22.5,5 L 22.5,103.5 Q 22.5,108.5 27.5,108.5 L 45,108.5" fill="none" stroke="#555" stroke-width="3" stroke-linecap="butt" stroke-linejoin="miter" stroke-miterlimit="10" transform="matrix(1, 0, 0, 1, 1.5, 1.5)"></path></g></g></g><clipPath id="mainClip7995"><rect x="0" y="0" width="5000" height="5000"></rect></clipPath></svg>